<?xml version="1.0" encoding="UTF-8" standalone="no"?><!DOCTYPE svg PUBLIC "-//W3C//DTD SVG 1.1//EN" "http://www.w3.org/Graphics/SVG/1.1/DTD/svg11.dtd"><svg width="100%" height="100%" viewBox="0 0 1001 200" version="1.1" xmlns="http://www.w3.org/2000/svg" xmlns:xlink="http://www.w3.org/1999/xlink" xml:space="preserve" xmlns:serif="http://www.serif.com/" style="fill-rule:evenodd;clip-rule:evenodd;stroke-linejoin:round;stroke-miterlimit:2;"><rect id="flatscout_logo" x="0.796" y="-0.003" width="1000" height="200" style="fill:none;"/><clipPath id="_clip1"><rect x="0.796" y="-0.003" width="1000" height="200"/></clipPath><g clip-path="url(#_clip1)"><g><g><path d="M246.016,161.541l0,-120.674l83.185,-0l0,18.825l-60.337,0l0,20.434l54.062,0l0,18.343l-54.062,-0l0,63.072l-22.848,0Z" style="fill:#011c13;fill-rule:nonzero;"/><rect x="345.291" y="47.946" width="22.848" height="113.595" style="fill:#011c13;fill-rule:nonzero;"/><path d="M412.547,112.145c3.111,0 6.168,0.188 9.172,0.563c3.003,0.376 6.06,0.564 9.171,0.564c2.574,-0 4.612,-0.698 6.114,-2.092c1.502,-1.395 2.253,-3.165 2.253,-5.31c-0,-2.574 -1.314,-4.478 -3.942,-5.712c-2.628,-1.233 -5.766,-1.85 -9.413,-1.85c-2.896,-0 -5.444,0.375 -7.643,1.126c-2.199,0.751 -4.049,1.716 -5.551,2.896c-1.501,1.18 -2.708,2.414 -3.62,3.701c-0.912,1.287 -1.582,2.521 -2.011,3.701l-19.469,-11.102l0.804,-0.966c3.862,-5.792 8.877,-10.565 15.045,-14.32c6.167,-3.754 13.81,-5.631 22.928,-5.631c5.47,-0 10.405,0.67 14.802,2.011c4.398,1.341 8.126,3.245 11.183,5.712c3.057,2.467 5.417,5.417 7.08,8.849c1.662,3.433 2.493,7.187 2.493,11.263l0,32.663c0,3.432 0.135,6.999 0.403,10.7c0.268,3.7 1.099,7.106 2.494,10.217l1.126,2.413l-18.664,0c-1.824,-1.287 -3.272,-2.949 -4.345,-4.988c-1.072,-2.038 -1.716,-3.968 -1.93,-5.792l-1.609,0l-11.263,11.102l-11.263,0c-5.042,0 -9.574,-0.643 -13.596,-1.931c-4.023,-1.287 -7.455,-3.057 -10.298,-5.309c-2.842,-2.253 -5.015,-4.935 -6.516,-8.045c-1.502,-3.111 -2.253,-6.544 -2.253,-10.298c0,-3.861 0.805,-7.294 2.414,-10.297c1.609,-3.004 3.754,-5.525 6.436,-7.563c2.681,-2.038 5.711,-3.593 9.09,-4.666c3.379,-1.072 6.839,-1.609 10.378,-1.609Zm-5.47,24.135c-0,2.789 1.153,4.988 3.459,6.597c2.306,1.609 5.551,2.413 9.735,2.413c3.325,0 6.114,-0.509 8.366,-1.528c2.253,-1.019 4.103,-2.44 5.551,-4.264c1.448,-1.823 2.548,-3.996 3.299,-6.516c0.751,-2.521 1.287,-5.23 1.609,-8.126l-1.609,0c-2.789,1.824 -5.739,2.87 -8.85,3.138c-3.11,0.268 -6.168,0.402 -9.171,0.402c-3.754,0 -6.758,0.563 -9.01,1.689c-2.253,1.127 -3.379,3.192 -3.379,6.195Z" style="fill:#011c13;fill-rule:nonzero;"/><path d="M478.033,95.894l0,-15.768l12.068,-1.609l-0,-30.571l22.848,0l-0,29.767l24.939,-0l-0,18.181l-24.939,0l-0,35.318c-0,1.019 0.026,2.091 0.08,3.218c0.054,1.126 0.188,2.172 0.402,3.137c0.215,0.966 0.537,1.663 0.966,2.092c0.858,1.18 2.038,1.77 3.539,1.77c1.288,-0 2.36,-0.59 3.218,-1.77c0.966,-1.502 1.529,-3.433 1.69,-5.792c0.161,-2.36 0.241,-5.256 0.241,-8.689l19.469,11.263c-0.429,2.682 -1.233,5.524 -2.413,8.528c-1.18,3.003 -2.843,5.712 -4.988,8.125c-2.146,2.414 -4.8,4.425 -7.965,6.034c-3.164,1.609 -6.999,2.413 -11.504,2.413c-5.042,0 -9.198,-0.911 -12.47,-2.735c-3.271,-1.823 -5.873,-4.264 -7.803,-7.321c-1.931,-3.057 -3.299,-6.57 -4.103,-10.539c-0.805,-3.969 -1.207,-8.098 -1.207,-12.389l-0,-32.663l-12.068,0Z" style="fill:#011c13;fill-rule:nonzero;"/><path d="M595.49,37.971c6.65,-0 12.711,0.67 18.182,2.011c5.47,1.341 10.833,3.62 16.09,6.838c2.252,1.395 4.371,3.138 6.355,5.229c1.984,2.092 3.728,4.345 5.229,6.758c1.502,2.414 2.762,4.881 3.781,7.401c1.019,2.521 1.69,4.908 2.012,7.16l-17.538,16.573c-0,-4.398 -0.51,-8.554 -1.529,-12.47c-1.019,-3.915 -2.762,-7.374 -5.229,-10.378c-2.467,-3.003 -5.712,-5.363 -9.735,-7.079c-4.022,-1.716 -9.09,-2.575 -15.205,-2.575c-6.006,0 -10.914,1.368 -14.722,4.103c-3.808,2.736 -5.712,6.356 -5.712,10.861c0,3.647 1.127,6.49 3.379,8.528c2.253,2.038 5.256,3.647 9.01,4.827c3.969,1.501 8.045,2.494 12.229,2.976c4.183,0.483 8.313,1.261 12.389,2.333c11.907,2.682 20.729,6.865 26.468,12.551c5.739,5.685 8.608,13.247 8.608,22.686c0,5.149 -0.965,9.869 -2.896,14.16c-1.931,4.29 -4.747,8.018 -8.447,11.182c-3.701,3.164 -8.287,5.605 -13.757,7.321c-5.471,1.716 -11.746,2.574 -18.825,2.574c-11.907,0 -21.749,-2.36 -29.525,-7.079c-7.777,-4.72 -13.543,-11.156 -17.297,-19.308c-1.824,-3.862 -3.004,-7.884 -3.54,-12.068l17.699,-16.411c0,4.505 0.51,8.849 1.529,13.032c1.019,4.184 2.762,7.911 5.229,11.183c2.467,3.272 5.765,5.9 9.895,7.884c4.13,1.984 9.359,2.977 15.688,2.977c6.758,-0 12.014,-1.207 15.768,-3.621c3.754,-2.413 5.631,-6.194 5.631,-11.343c0,-4.076 -1.206,-7.321 -3.62,-9.734c-2.413,-2.414 -5.604,-4.425 -9.573,-6.034c-4.291,-1.824 -8.796,-3.084 -13.516,-3.781c-4.72,-0.697 -9.332,-1.636 -13.837,-2.816c-10.19,-2.253 -17.994,-5.953 -23.411,-11.102c-5.417,-5.149 -8.125,-11.853 -8.125,-20.112c-0,-4.398 0.938,-8.689 2.815,-12.872c1.877,-4.184 4.559,-7.938 8.045,-11.263c3.486,-3.326 7.75,-6.007 12.792,-8.045c5.041,-2.038 10.78,-3.057 17.216,-3.057Z" style="fill:#011c13;fill-rule:nonzero;"/><path d="M702.971,77.069c5.685,0 10.673,0.671 14.963,2.011c4.291,1.341 8.019,3.084 11.183,5.23c3.164,2.145 5.765,4.505 7.804,7.079c2.038,2.575 3.593,5.149 4.666,7.723l-19.63,10.942c-0.107,-0.966 -0.483,-2.253 -1.126,-3.862c-0.644,-1.609 -1.636,-3.191 -2.977,-4.747c-1.341,-1.555 -3.138,-2.896 -5.39,-4.022c-2.253,-1.126 -5.149,-1.69 -8.689,-1.69c-3.861,0 -7.079,0.751 -9.654,2.253c-2.574,1.502 -4.585,3.406 -6.033,5.712c-1.449,2.306 -2.468,4.881 -3.058,7.723c-0.589,2.843 -0.884,5.605 -0.884,8.286c-0,2.789 0.268,5.605 0.804,8.448c0.536,2.842 1.502,5.39 2.896,7.642c1.395,2.253 3.325,4.077 5.793,5.471c2.467,1.394 5.631,2.092 9.493,2.092c5.685,-0 10.19,-1.368 13.515,-4.103c3.325,-2.736 5.9,-6.517 7.723,-11.344l16.09,15.608c-4.505,6.221 -9.975,10.86 -16.411,13.917c-6.436,3.057 -13.355,4.586 -20.756,4.586c-8.045,0 -14.75,-1.287 -20.113,-3.862c-5.363,-2.574 -9.654,-5.872 -12.872,-9.895c-3.218,-4.022 -5.47,-8.528 -6.758,-13.515c-1.287,-4.988 -1.93,-9.896 -1.93,-14.723c-0,-4.719 0.643,-9.627 1.93,-14.722c1.288,-5.095 3.487,-9.734 6.597,-13.918c3.111,-4.183 7.348,-7.616 12.711,-10.297c5.364,-2.682 12.068,-4.023 20.113,-4.023Z" style="fill:#011c13;fill-rule:nonzero;"/><path d="M749.632,119.868c-0,-4.505 0.616,-9.305 1.85,-14.4c1.234,-5.095 3.379,-9.815 6.436,-14.159c3.057,-4.345 7.16,-7.965 12.309,-10.861c5.148,-2.896 11.692,-4.344 19.629,-4.344c7.938,-0 14.481,1.448 19.63,4.344c5.149,2.896 9.252,6.516 12.309,10.861c3.057,4.344 5.202,9.064 6.436,14.159c1.234,5.095 1.85,9.895 1.85,14.4c0,4.613 -0.616,9.413 -1.85,14.401c-1.234,4.988 -3.379,9.52 -6.436,13.596c-3.057,4.076 -7.16,7.455 -12.309,10.137c-5.149,2.681 -11.692,4.022 -19.63,4.022c-7.83,0 -14.346,-1.341 -19.549,-4.022c-5.202,-2.682 -9.332,-6.061 -12.389,-10.137c-3.057,-4.076 -5.202,-8.608 -6.436,-13.596c-1.234,-4.988 -1.85,-9.788 -1.85,-14.401Zm22.204,0c-0,2.682 0.241,5.364 0.724,8.045c0.482,2.682 1.367,5.096 2.655,7.241c1.287,2.145 3.11,3.861 5.47,5.149c2.36,1.287 5.417,1.93 9.171,1.93c3.755,0 6.812,-0.643 9.172,-1.93c2.36,-1.288 4.21,-3.004 5.551,-5.149c1.341,-2.145 2.252,-4.559 2.735,-7.241c0.483,-2.681 0.724,-5.363 0.724,-8.045c0,-3.11 -0.268,-6.087 -0.804,-8.93c-0.537,-2.842 -1.502,-5.39 -2.897,-7.642c-1.394,-2.253 -3.271,-4.05 -5.631,-5.39c-2.36,-1.341 -5.31,-2.012 -8.85,-2.012c-3.539,0 -6.462,0.671 -8.769,2.012c-2.306,1.34 -4.156,3.137 -5.551,5.39c-1.394,2.252 -2.359,4.827 -2.896,7.723c-0.536,2.896 -0.804,5.846 -0.804,8.849Z" style="fill:#011c13;fill-rule:nonzero;"/><path d="M846.171,77.713l22.848,-0l-0,48.43c-0,2.039 0.241,4.05 0.724,6.034c0.483,1.985 1.287,3.701 2.413,5.149c1.127,1.448 2.629,2.628 4.506,3.54c1.877,0.912 4.156,1.367 6.838,1.367c2.789,0 5.095,-0.429 6.919,-1.287c1.823,-0.858 3.244,-2.011 4.263,-3.459c1.019,-1.448 1.717,-3.138 2.092,-5.068c0.376,-1.931 0.563,-4.023 0.563,-6.276l0,-48.43l22.848,-0l-0,60.015c-0,2.253 0.027,4.371 0.08,6.356c0.054,1.984 0.188,3.915 0.403,5.792c0.214,1.877 0.616,3.754 1.206,5.632c0.59,1.877 1.368,3.888 2.333,6.033l-19.307,0c-1.288,-1.072 -2.414,-2.655 -3.379,-4.746c-0.966,-2.092 -1.663,-3.996 -2.092,-5.712l-1.609,-0l-9.493,9.815c-1.502,0.214 -2.843,0.402 -4.023,0.563c-1.18,0.161 -2.52,0.241 -4.022,0.241c-6.758,0 -12.336,-1.126 -16.734,-3.379c-4.398,-2.252 -7.884,-5.122 -10.458,-8.608c-2.574,-3.486 -4.371,-7.321 -5.39,-11.504c-1.019,-4.183 -1.529,-8.206 -1.529,-12.068l0,-48.43Z" style="fill:#011c13;fill-rule:nonzero;"/><path d="M936.275,95.894l-0,-15.768l12.067,-1.609l0,-30.571l22.848,0l0,29.767l24.939,-0l0,18.181l-24.939,0l0,35.318c0,1.019 0.027,2.091 0.081,3.218c0.053,1.126 0.187,2.172 0.402,3.137c0.214,0.966 0.536,1.663 0.965,2.092c0.858,1.18 2.038,1.77 3.54,1.77c1.287,-0 2.36,-0.59 3.218,-1.77c0.965,-1.502 1.528,-3.433 1.689,-5.792c0.161,-2.36 0.242,-5.256 0.242,-8.689l19.469,11.263c-0.43,2.682 -1.234,5.524 -2.414,8.528c-1.18,3.003 -2.842,5.712 -4.988,8.125c-2.145,2.414 -4.8,4.425 -7.964,6.034c-3.165,1.609 -6.999,2.413 -11.505,2.413c-5.041,0 -9.198,-0.911 -12.469,-2.735c-3.272,-1.823 -5.873,-4.264 -7.804,-7.321c-1.931,-3.057 -3.298,-6.57 -4.103,-10.539c-0.804,-3.969 -1.207,-8.098 -1.207,-12.389l0,-32.663l-12.067,0Z" style="fill:#011c13;fill-rule:nonzero;"/></g><g><path d="M159.019,-0.003c11.08,0 21.706,4.402 29.541,12.236c7.834,7.835 12.236,18.461 12.236,29.54l-0,116.448c-0,11.08 -4.402,21.706 -12.236,29.54c-7.835,7.835 -18.461,12.236 -29.541,12.236l-116.447,0c-11.08,0 -21.706,-4.401 -29.541,-12.236c-7.834,-7.834 -12.235,-18.46 -12.235,-29.54l-0,-116.448c-0,-11.079 4.401,-21.705 12.235,-29.54c7.835,-7.834 18.461,-12.236 29.541,-12.236l116.447,0Z" style="fill:#08ab78;"/><g><path d="M146.307,32.3l-0,0.002c-0,12.07 -4.795,23.645 -13.33,32.18c-6.108,6.108 -13.775,10.301 -22.066,12.191l35.396,-0l-0,0.002c-0,12.07 -4.795,23.645 -13.33,32.18c-8.534,8.534 -20.11,13.329 -32.179,13.329l-0.002,-0l-0,45.511l-0.003,-0c-12.069,-0 -23.645,-4.795 -32.179,-13.329c-8.535,-8.535 -13.329,-20.11 -13.329,-32.18l-0,-0.004c-0,-12.07 4.794,-23.645 13.329,-32.18c6.109,-6.109 13.775,-10.301 22.066,-12.191l-35.395,-0l-0,-0.003c-0,-12.069 4.794,-23.645 13.329,-32.179c8.534,-8.535 20.11,-13.329 32.179,-13.329l45.514,-0Z" style="fill:#e9f7f2;"/></g></g></g></g></svg>